<svg width="125" height="68" viewBox="0 0 125 68" fill="none" xmlns="http://www.w3.org/2000/svg">
<rect x="2.26667" y="2.26667" width="63.4667" height="63.4667" stroke="#4B42AB" stroke-width="4.53333"/>
<rect x="53" y="19" width="34" height="34" fill="#F4F7FF"/>
<path d="M43.84 42.652C41.296 45.172 38.104 46.432 34.264 46.432C30.424 46.432 27.232 45.172 24.688 42.652C22.168 40.132 20.908 37.048 20.908 33.4C20.908 29.776 22.18 26.704 24.724 24.184C27.292 21.64 30.496 20.368 34.336 20.368C38.176 20.368 41.356 21.628 43.876 24.148C46.42 26.668 47.692 29.752 47.692 33.4C47.692 37.024 46.408 40.108 43.84 42.652ZM28.864 39.016C30.304 40.552 32.128 41.32 34.336 41.32C36.544 41.32 38.356 40.564 39.772 39.052C41.188 37.516 41.896 35.632 41.896 33.4C41.896 31.192 41.176 29.32 39.736 27.784C38.296 26.248 36.472 25.48 34.264 25.48C32.056 25.48 30.244 26.248 28.828 27.784C27.412 29.296 26.704 31.168 26.704 33.4C26.704 35.608 27.424 37.48 28.864 39.016ZM80.5029 26.704V46H75.0309V38.62H68.2989V46H62.8269V26.704H68.2989V34.12H75.0309V26.704H80.5029ZM90.8692 46.36C88.9732 46.36 87.3892 45.832 86.1172 44.776C84.8692 43.72 84.2452 42.256 84.2452 40.384C84.2452 38.344 84.9412 36.808 86.3332 35.776C87.7492 34.744 89.6452 34.228 92.0212 34.228C93.6292 34.228 95.2012 34.492 96.7372 35.02V34.696C96.7372 32.344 95.3572 31.168 92.5972 31.168C90.9412 31.168 89.1652 31.516 87.2692 32.212L85.9012 28.036C88.2532 27.004 90.7492 26.488 93.3892 26.488C96.2932 26.488 98.4652 27.208 99.9052 28.648C101.297 30.04 101.993 32.092 101.993 34.804V46H96.7012V43.912C95.2372 45.544 93.2932 46.36 90.8692 46.36ZM92.5252 42.58C93.7972 42.58 94.8292 42.268 95.6212 41.644C96.4132 40.996 96.8092 40.18 96.8092 39.196V38.224C95.7772 37.744 94.6132 37.504 93.3172 37.504C92.1172 37.504 91.1812 37.744 90.5092 38.224C89.8612 38.68 89.5372 39.352 89.5372 40.24C89.5372 40.96 89.8132 41.536 90.3652 41.968C90.9172 42.376 91.6372 42.58 92.5252 42.58ZM115.81 46.432C112.93 46.432 110.53 45.46 108.61 43.516C106.714 41.572 105.766 39.196 105.766 36.388C105.766 33.604 106.726 31.24 108.646 29.296C110.566 27.328 112.978 26.344 115.882 26.344C118.978 26.344 121.534 27.472 123.55 29.728L120.346 32.968C119.002 31.696 117.502 31.06 115.846 31.06C114.502 31.06 113.386 31.576 112.498 32.608C111.61 33.64 111.166 34.9 111.166 36.388C111.166 37.9 111.61 39.172 112.498 40.204C113.41 41.212 114.598 41.716 116.062 41.716C117.574 41.716 119.05 41.032 120.49 39.664L123.694 42.904C122.638 44.056 121.51 44.932 120.31 45.532C119.11 46.132 117.61 46.432 115.81 46.432Z" fill="#4B42AB"/>
</svg>
