<svg width="151" height="68" viewBox="0 0 151 68" fill="none" xmlns="http://www.w3.org/2000/svg">
<rect x="2.26667" y="2.26667" width="63.4667" height="63.4667" stroke="#4B42AB" stroke-width="4.53333"/>
<rect x="53" y="19" width="34" height="34" fill="white"/>
<path d="M30.988 20.368C33.676 20.368 35.86 21.004 37.54 22.276C39.244 23.548 40.096 25.168 40.096 27.136C40.096 29.824 38.74 31.756 36.028 32.932C39.172 33.94 40.744 35.92 40.744 38.872C40.744 41.08 39.868 42.892 38.116 44.308C36.388 45.724 34.072 46.432 31.168 46.432C28.6 46.432 26.44 46.084 24.688 45.388C22.96 44.692 21.388 43.636 19.972 42.22L22.924 38.368C25.108 40.504 27.784 41.572 30.952 41.572C32.176 41.572 33.184 41.308 33.976 40.78C34.792 40.228 35.2 39.484 35.2 38.548C35.2 37.54 34.744 36.796 33.832 36.316C32.944 35.836 31.732 35.596 30.196 35.596H27.28V30.988H30.124C33.124 30.988 34.624 30.016 34.624 28.072C34.624 27.208 34.252 26.524 33.508 26.02C32.764 25.516 31.78 25.264 30.556 25.264C27.82 25.264 25.552 26.188 23.752 28.036L20.836 24.508C23.476 21.748 26.86 20.368 30.988 20.368ZM50.4747 46.36C48.5787 46.36 46.9947 45.832 45.7227 44.776C44.4747 43.72 43.8507 42.256 43.8507 40.384C43.8507 38.344 44.5467 36.808 45.9387 35.776C47.3547 34.744 49.2507 34.228 51.6267 34.228C53.2347 34.228 54.8067 34.492 56.3427 35.02V34.696C56.3427 32.344 54.9627 31.168 52.2027 31.168C50.5467 31.168 48.7707 31.516 46.8747 32.212L45.5067 28.036C47.8587 27.004 50.3547 26.488 52.9947 26.488C55.8987 26.488 58.0707 27.208 59.5107 28.648C60.9027 30.04 61.5987 32.092 61.5987 34.804V46H56.3067V43.912C54.8427 45.544 52.8987 46.36 50.4747 46.36ZM52.1307 42.58C53.4027 42.58 54.4347 42.268 55.2267 41.644C56.0187 40.996 56.4147 40.18 56.4147 39.196V38.224C55.3827 37.744 54.2187 37.504 52.9227 37.504C51.7227 37.504 50.7867 37.744 50.1147 38.224C49.4667 38.68 49.1427 39.352 49.1427 40.24C49.1427 40.96 49.4187 41.536 49.9707 41.968C50.5227 42.376 51.2427 42.58 52.1307 42.58ZM83.4074 26.704V46H77.9354V39.808H74.9834L70.9154 46H64.5794L69.5114 38.908C66.8234 37.876 65.4794 35.956 65.4794 33.148C65.4794 31.18 66.1634 29.62 67.5314 28.468C68.8994 27.292 70.8194 26.704 73.2914 26.704H83.4074ZM74.2274 35.848H77.9354V30.988H74.1914C73.1834 30.988 72.4034 31.204 71.8514 31.636C71.2994 32.044 71.0234 32.644 71.0234 33.436C71.0234 34.204 71.2994 34.804 71.8514 35.236C72.4274 35.644 73.2194 35.848 74.2274 35.848ZM88.3152 26.704H98.8992C100.867 26.704 102.427 27.136 103.579 28C104.755 28.864 105.343 30.04 105.343 31.528C105.343 33.544 104.323 34.996 102.283 35.884C104.803 36.652 106.063 38.272 106.063 40.744C106.063 42.376 105.415 43.66 104.119 44.596C102.847 45.532 101.095 46 98.8632 46H88.3152V26.704ZM93.7152 34.444H97.5672C98.3112 34.444 98.8752 34.264 99.2592 33.904C99.6672 33.544 99.8712 33.076 99.8712 32.5C99.8712 31.996 99.6792 31.576 99.2952 31.24C98.9352 30.904 98.3832 30.736 97.6392 30.736H93.7152V34.444ZM93.7152 41.716H98.0352C99.6912 41.716 100.519 41.068 100.519 39.772C100.519 38.524 99.6432 37.9 97.8912 37.9H93.7152V41.716ZM109.901 46V26.704H115.373V34.624L122.285 26.704H128.585L121.493 34.624L129.485 46H123.005L117.857 38.656L115.373 41.356V46H109.901ZM137.381 46.36C135.485 46.36 133.901 45.832 132.629 44.776C131.381 43.72 130.757 42.256 130.757 40.384C130.757 38.344 131.453 36.808 132.845 35.776C134.261 34.744 136.157 34.228 138.533 34.228C140.141 34.228 141.713 34.492 143.249 35.02V34.696C143.249 32.344 141.869 31.168 139.109 31.168C137.453 31.168 135.677 31.516 133.781 32.212L132.413 28.036C134.765 27.004 137.261 26.488 139.901 26.488C142.805 26.488 144.977 27.208 146.417 28.648C147.809 30.04 148.505 32.092 148.505 34.804V46H143.213V43.912C141.749 45.544 139.805 46.36 137.381 46.36ZM139.037 42.58C140.309 42.58 141.341 42.268 142.133 41.644C142.925 40.996 143.321 40.18 143.321 39.196V38.224C142.289 37.744 141.125 37.504 139.829 37.504C138.629 37.504 137.693 37.744 137.021 38.224C136.373 38.68 136.049 39.352 136.049 40.24C136.049 40.96 136.325 41.536 136.877 41.968C137.429 42.376 138.149 42.58 139.037 42.58Z" fill="#4B42AB"/>
</svg>
