<svg width="90" height="71" viewBox="0 0 90 71" fill="none" xmlns="http://www.w3.org/2000/svg">
<rect x="1.95652" y="1.95652" width="66.5217" height="66.5217" stroke="#4B42AB" stroke-width="3.91304"/>
<rect x="41.7391" y="16.3044" width="41.7391" height="38.4783" fill="#F4F7FF"/>
<path d="M35.3804 51.3914H31.4469V37.6753H16.4877V51.3914H12.5747V21.7174H16.4877V34.4756H31.4469V21.7174H35.3804V51.3914ZM53.2132 39.3873H46.2431V51.3914H42.3097V21.7174H52.1331C55.4755 21.7174 58.0434 22.4783 59.8369 24.0001C61.644 25.5218 62.5475 27.7365 62.5475 30.6441C62.5475 32.4919 62.0448 34.102 61.0393 35.4742C60.0475 36.8465 58.6616 37.8723 56.8817 38.5517L63.8518 51.1468V51.3914H59.6535L53.2132 39.3873ZM46.2431 36.1876H52.2554C54.1983 36.1876 55.7404 35.6848 56.8817 34.6794C58.0366 33.674 58.6141 32.3289 58.6141 30.6441C58.6141 28.8098 58.0638 27.4036 56.9632 26.4253C55.8763 25.4471 54.3002 24.9511 52.235 24.9376H46.2431V36.1876ZM76.7934 38.1645C73.4374 37.1998 70.9918 36.0177 69.4565 34.6183C67.9347 33.2052 67.1738 31.4661 67.1738 29.4009C67.1738 27.0639 68.1046 25.1346 69.966 23.6128C71.841 22.0775 74.273 21.3098 77.2622 21.3098C79.3002 21.3098 81.1141 21.7039 82.7037 22.4919C84.307 23.2799 85.5434 24.3669 86.413 25.7528C87.2961 27.1386 87.7377 28.6536 87.7377 30.2976H83.8043C83.8043 28.5041 83.2336 27.0979 82.0923 26.0789C80.951 25.0463 79.341 24.5299 77.2622 24.5299C75.3328 24.5299 73.8247 24.9579 72.7377 25.8139C71.6643 26.6563 71.1277 27.8316 71.1277 29.3397C71.1277 30.549 71.6372 31.5748 72.6562 32.4172C73.6888 33.246 75.4347 34.0068 77.894 34.6998C80.3668 35.3927 82.2961 36.1604 83.682 37.0028C85.0815 37.8316 86.1141 38.803 86.7798 39.9172C87.4592 41.0313 87.7988 42.3424 87.7988 43.8506C87.7988 46.2555 86.8613 48.1848 84.9863 49.6386C83.1113 51.0789 80.6046 51.799 77.466 51.799C75.4279 51.799 73.5257 51.4117 71.7594 50.6373C69.9931 49.8492 68.6277 48.7759 67.663 47.4172C66.7119 46.0585 66.2363 44.5164 66.2363 42.7908H70.1698C70.1698 44.5843 70.8287 46.0041 72.1467 47.0503C73.4782 48.0829 75.2513 48.5992 77.466 48.5992C79.5312 48.5992 81.1141 48.178 82.2146 47.3357C83.3151 46.4933 83.8654 45.3452 83.8654 43.8914C83.8654 42.4376 83.3559 41.3166 82.3369 40.5286C81.3179 39.727 79.47 38.9389 76.7934 38.1645Z" fill="#4B42AB"/>
</svg>
