<svg width="333" height="68" viewBox="0 0 333 68" fill="none" xmlns="http://www.w3.org/2000/svg">
<rect x="2.26667" y="2.26667" width="63.4667" height="63.4667" stroke="#4B42AB" stroke-width="4.53333"/>
<rect x="53" y="19" width="34" height="34" fill="white"/>
<path d="M22.024 46V20.8H43.048V46H37.504V25.804H27.568V46H22.024ZM48.5183 51.76V26.704H53.9903V29.476C55.5263 27.388 57.5303 26.344 60.0023 26.344C62.4023 26.344 64.4663 27.244 66.1943 29.044C67.9223 30.844 68.7863 33.292 68.7863 36.388C68.7863 39.46 67.9223 41.896 66.1943 43.696C64.4903 45.472 62.4263 46.36 60.0023 46.36C57.6023 46.36 55.5983 45.4 53.9903 43.48V51.76H48.5183ZM55.2503 40.24C56.1623 41.224 57.2783 41.716 58.5983 41.716C59.9183 41.716 61.0343 41.224 61.9463 40.24C62.8583 39.232 63.3143 37.924 63.3143 36.316C63.3143 34.756 62.8583 33.484 61.9463 32.5C61.0343 31.492 59.9183 30.988 58.5983 30.988C57.2783 30.988 56.1623 31.492 55.2503 32.5C54.3623 33.484 53.9183 34.78 53.9183 36.388C53.9183 37.948 54.3623 39.232 55.2503 40.24ZM89.7313 43.516C87.7393 45.46 85.2553 46.432 82.2793 46.432C79.3033 46.432 76.8193 45.472 74.8273 43.552C72.8593 41.608 71.8753 39.22 71.8753 36.388C71.8753 33.58 72.8713 31.204 74.8633 29.26C76.8793 27.316 79.3753 26.344 82.3513 26.344C85.3273 26.344 87.7993 27.316 89.7673 29.26C91.7593 31.18 92.7553 33.556 92.7553 36.388C92.7553 39.196 91.7473 41.572 89.7313 43.516ZM82.3513 41.716C83.8633 41.716 85.0753 41.212 85.9873 40.204C86.8993 39.172 87.3553 37.9 87.3553 36.388C87.3553 34.924 86.8753 33.676 85.9153 32.644C84.9793 31.588 83.7673 31.06 82.2793 31.06C80.7673 31.06 79.5553 31.576 78.6433 32.608C77.7313 33.616 77.2753 34.876 77.2753 36.388C77.2753 37.852 77.7433 39.112 78.6793 40.168C79.6393 41.2 80.8633 41.716 82.3513 41.716ZM111.622 50.536V46H96.7175V26.704H102.19V41.32H108.778V26.704H114.25V41.32H116.878L116.23 50.536H111.622ZM128.994 46.432C126.066 46.432 123.654 45.508 121.758 43.66C119.862 41.788 118.914 39.364 118.914 36.388C118.914 33.58 119.814 31.204 121.614 29.26C123.414 27.316 125.694 26.344 128.454 26.344C131.502 26.344 133.83 27.352 135.438 29.368C137.046 31.384 137.85 33.868 137.85 36.82C137.85 37.108 137.826 37.588 137.778 38.26H124.35C124.614 39.484 125.154 40.42 125.97 41.068C126.786 41.716 127.818 42.04 129.066 42.04C130.77 42.04 132.33 41.38 133.746 40.06L136.878 42.832C134.934 45.232 132.306 46.432 128.994 46.432ZM124.278 34.84H132.522C132.354 33.592 131.91 32.596 131.19 31.852C130.494 31.108 129.582 30.736 128.454 30.736C127.35 30.736 126.426 31.108 125.682 31.852C124.962 32.572 124.494 33.568 124.278 34.84ZM151.036 46.432C148.156 46.432 145.756 45.46 143.836 43.516C141.94 41.572 140.992 39.196 140.992 36.388C140.992 33.604 141.952 31.24 143.872 29.296C145.792 27.328 148.204 26.344 151.108 26.344C154.204 26.344 156.76 27.472 158.776 29.728L155.572 32.968C154.228 31.696 152.728 31.06 151.072 31.06C149.728 31.06 148.612 31.576 147.724 32.608C146.836 33.64 146.392 34.9 146.392 36.388C146.392 37.9 146.836 39.172 147.724 40.204C148.636 41.212 149.824 41.716 151.288 41.716C152.8 41.716 154.276 41.032 155.716 39.664L158.92 42.904C157.864 44.056 156.736 44.932 155.536 45.532C154.336 46.132 152.836 46.432 151.036 46.432ZM171.603 46.432C168.723 46.432 166.323 45.46 164.403 43.516C162.507 41.572 161.559 39.196 161.559 36.388C161.559 33.604 162.519 31.24 164.439 29.296C166.359 27.328 168.771 26.344 171.675 26.344C174.771 26.344 177.327 27.472 179.343 29.728L176.139 32.968C174.795 31.696 173.295 31.06 171.639 31.06C170.295 31.06 169.179 31.576 168.291 32.608C167.403 33.64 166.959 34.9 166.959 36.388C166.959 37.9 167.403 39.172 168.291 40.204C169.203 41.212 170.391 41.716 171.855 41.716C173.367 41.716 174.843 41.032 176.283 39.664L179.487 42.904C178.431 44.056 177.303 44.932 176.103 45.532C174.903 46.132 173.403 46.432 171.603 46.432ZM193.854 51.76V26.704H199.326V29.476C200.862 27.388 202.866 26.344 205.338 26.344C207.738 26.344 209.802 27.244 211.53 29.044C213.258 30.844 214.122 33.292 214.122 36.388C214.122 39.46 213.258 41.896 211.53 43.696C209.826 45.472 207.762 46.36 205.338 46.36C202.938 46.36 200.934 45.4 199.326 43.48V51.76H193.854ZM200.586 40.24C201.498 41.224 202.614 41.716 203.934 41.716C205.254 41.716 206.37 41.224 207.282 40.24C208.194 39.232 208.65 37.924 208.65 36.316C208.65 34.756 208.194 33.484 207.282 32.5C206.37 31.492 205.254 30.988 203.934 30.988C202.614 30.988 201.498 31.492 200.586 32.5C199.698 33.484 199.254 34.78 199.254 36.388C199.254 37.948 199.698 39.232 200.586 40.24ZM223.619 46.36C221.723 46.36 220.139 45.832 218.867 44.776C217.619 43.72 216.995 42.256 216.995 40.384C216.995 38.344 217.691 36.808 219.083 35.776C220.499 34.744 222.395 34.228 224.771 34.228C226.379 34.228 227.951 34.492 229.487 35.02V34.696C229.487 32.344 228.107 31.168 225.347 31.168C223.691 31.168 221.915 31.516 220.019 32.212L218.651 28.036C221.003 27.004 223.499 26.488 226.139 26.488C229.043 26.488 231.215 27.208 232.655 28.648C234.047 30.04 234.743 32.092 234.743 34.804V46H229.451V43.912C227.987 45.544 226.043 46.36 223.619 46.36ZM225.275 42.58C226.547 42.58 227.579 42.268 228.371 41.644C229.163 40.996 229.559 40.18 229.559 39.196V38.224C228.527 37.744 227.363 37.504 226.067 37.504C224.867 37.504 223.931 37.744 223.259 38.224C222.611 38.68 222.287 39.352 222.287 40.24C222.287 40.96 222.563 41.536 223.115 41.968C223.667 42.376 224.387 42.58 225.275 42.58ZM249.064 41.716C250.432 41.716 251.548 41.248 252.412 40.312C253.276 39.352 253.708 38.164 253.708 36.748C253.708 35.356 253.252 34.168 252.34 33.184C251.452 32.2 250.336 31.708 248.992 31.708C247.624 31.708 246.508 32.2 245.644 33.184C244.78 34.144 244.348 35.332 244.348 36.748C244.348 38.14 244.792 39.316 245.68 40.276C246.592 41.236 247.72 41.716 249.064 41.716ZM248.992 46.432C245.728 46.432 243.232 45.448 241.504 43.48C239.776 41.488 238.912 38.632 238.912 34.912C238.912 33.592 238.96 32.428 239.056 31.42C239.152 30.388 239.356 29.296 239.668 28.144C240.004 26.992 240.448 26.008 241 25.192C241.576 24.376 242.368 23.644 243.376 22.996C244.408 22.348 245.62 21.892 247.012 21.628L257.344 19.72L258.208 24.04L247.624 26.128C244.696 26.728 243.136 28.24 242.944 30.664C243.4 29.872 244.24 29.14 245.464 28.468C246.688 27.772 248.188 27.424 249.964 27.424C252.46 27.424 254.608 28.312 256.408 30.088C258.208 31.864 259.108 34.06 259.108 36.676C259.108 39.388 258.148 41.692 256.228 43.588C254.308 45.484 251.896 46.432 248.992 46.432ZM279.927 43.516C277.935 45.46 275.451 46.432 272.475 46.432C269.499 46.432 267.015 45.472 265.023 43.552C263.055 41.608 262.071 39.22 262.071 36.388C262.071 33.58 263.067 31.204 265.059 29.26C267.075 27.316 269.571 26.344 272.547 26.344C275.523 26.344 277.995 27.316 279.963 29.26C281.955 31.18 282.951 33.556 282.951 36.388C282.951 39.196 281.943 41.572 279.927 43.516ZM272.547 41.716C274.059 41.716 275.271 41.212 276.183 40.204C277.095 39.172 277.551 37.9 277.551 36.388C277.551 34.924 277.071 33.676 276.111 32.644C275.175 31.588 273.963 31.06 272.475 31.06C270.963 31.06 269.751 31.576 268.839 32.608C267.927 33.616 267.471 34.876 267.471 36.388C267.471 37.852 267.939 39.112 268.875 40.168C269.835 41.2 271.059 41.716 272.547 41.716ZM301.997 26.704V31.384H296.273V46H290.729V31.384H285.005V26.704H301.997ZM304.983 46V26.704H310.455V33.076H314.415C316.743 33.076 318.603 33.616 319.995 34.696C321.411 35.776 322.119 37.36 322.119 39.448C322.119 41.488 321.459 43.096 320.139 44.272C318.843 45.424 317.031 46 314.703 46H304.983ZM313.875 37.216H310.455V41.68H313.911C315.711 41.68 316.611 40.912 316.611 39.376C316.611 38.704 316.371 38.176 315.891 37.792C315.435 37.408 314.763 37.216 313.875 37.216ZM324.675 46V26.704H330.147V46H324.675Z" fill="#4B42AB"/>
</svg>
